/* XPM */
static char * color_range_right_slider_xpm[] = {
"15 11 28 1",
" 	c None",
".	c #D8D8D8",
"+	c #979797",
"@	c #A0A0A0",
"#	c #BEBEBE",
"$	c #9E9E9E",
"%	c #D4D4D4",
"&	c #FFFFFF",
"*	c #B5B5B5",
"=	c #C3C3C3",
"-	c #D5D5D5",
";	c #E8E8E8",
">	c #E5E5E5",
",	c #E3E3E3",
"'	c #F1F1F1",
")	c #F3F3F3",
"!	c #F5F5F5",
"~	c #F7F7F7",
"{	c #F9F9F9",
"]	c #A1A1A1",
"^	c #EAEAEA",
"/	c #DADADA",
"(	c #EDEDED",
"_	c #C5C5C5",
":	c #F0F0F0",
"<	c #EEEEEE",
"[	c #C4C4C4",
"}	c #BFBFBF",
"    .+++++++@# ",
"   .$%&&&&&&&*=",
"  .$-;>,')!~{&]",
" .$.^;>,')!~{&+",
".$/(^;>,')!~{&+",
"+_:(^;>,')!~{&+",
".$/(^;>,')!~{&+",
" .$.^;>,')!~{&+",
"  .$-;>,')!~{:]",
"   .$%>,')!~<*[",
"    .+++++++@} "};
