/* XPM */
static char * color_range_left_slider_xpm[] = {
"15 11 28 1",
" 	c None",
".	c #BEBEBE",
"+	c #A0A0A0",
"@	c #979797",
"#	c #D8D8D8",
"$	c #C3C3C3",
"%	c #B5B5B5",
"&	c #FFFFFF",
"*	c #D4D4D4",
"=	c #9E9E9E",
"-	c #A1A1A1",
";	c #F9F9F9",
">	c #F7F7F7",
",	c #F5F5F5",
"'	c #F3F3F3",
")	c #F1F1F1",
"!	c #E3E3E3",
"~	c #E5E5E5",
"{	c #E8E8E8",
"]	c #D5D5D5",
"^	c #EAEAEA",
"/	c #EDEDED",
"(	c #DADADA",
"_	c #F0F0F0",
":	c #C5C5C5",
"<	c #C4C4C4",
"[	c #EEEEEE",
"}	c #BFBFBF",
" .+@@@@@@@#    ",
"$%&&&&&&&*=#   ",
"-&;>,')!~{]=#  ",
"@&;>,')!~{^#=# ",
"@&;>,')!~{^/(=#",
"@&;>,')!~{^/_:@",
"@&;>,')!~{^/(=#",
"@&;>,')!~{^#=# ",
"-_;>,')!~{]=#  ",
"<%[>,')!~*=#   ",
" }+@@@@@@@#    "};
